<svg xmlns="http://www.w3.org/2000/svg" xmlns:xlink="http://www.w3.org/1999/xlink" preserveAspectRatio="xMidYMid" width="32" height="32" viewBox="0 0 32 32">
  <defs>
    <style>
      .cls-1 {
        fill: #fff;
        stroke: #fff;
        stroke-width: 2px;
        fill-rule: evenodd;
      }
    </style>
  </defs>
  <path d="M16.000,31.000 C7.716,31.000 1.000,24.284 1.000,16.000 C1.000,7.716 7.716,1.000 16.000,1.000 C24.284,1.000 31.000,7.716 31.000,16.000 C31.000,24.284 24.284,31.000 16.000,31.000 ZM25.077,10.697 C24.491,10.111 23.541,10.111 22.956,10.697 L14.117,19.535 L9.521,14.939 C8.935,14.353 7.985,14.353 7.399,14.939 C6.813,15.525 6.813,16.475 7.399,17.061 L13.056,22.717 C13.642,23.303 14.592,23.303 15.177,22.717 L25.077,12.818 C25.663,12.232 25.663,11.282 25.077,10.697 Z" class="cls-1"/>
</svg>
