<svg xmlns="http://www.w3.org/2000/svg" xmlns:xlink="http://www.w3.org/1999/xlink" preserveAspectRatio="xMidYMid" width="299" height="22" viewBox="0 0 299 22">
  <defs>
    <style>
      .cls-1 {
        fill: #fde501;
        fill-rule: evenodd;
      }
    </style>
  </defs>
  <path d="M291.639,14.434 C291.639,14.434 288.357,12.296 285.260,13.941 C282.162,15.587 279.141,17.263 275.936,13.941 C275.936,13.941 273.467,11.573 274.954,8.528 C274.954,8.528 276.894,4.816 280.843,6.560 C280.843,6.560 283.753,7.867 283.297,10.989 C282.855,14.011 280.174,13.136 279.862,12.465 C279.549,11.795 279.447,10.558 280.843,10.497 C280.843,10.497 281.870,10.943 281.824,10.005 C281.778,9.066 279.677,6.867 277.899,8.036 C276.120,9.205 275.491,11.558 277.899,13.449 C277.899,13.449 279.601,15.033 282.315,13.941 C285.030,12.850 287.529,10.820 291.639,12.957 C295.749,15.095 296.562,14.803 299.000,12.957 C299.000,12.957 296.730,17.494 291.639,14.434 ZM285.750,14.926 C285.750,14.926 280.232,21.520 270.047,14.926 C270.047,14.926 262.733,10.391 255.816,17.386 C248.699,24.584 237.321,22.511 233.733,16.894 C233.733,16.894 229.522,10.885 234.224,7.544 C234.224,7.544 232.345,3.327 235.205,1.146 C238.065,-1.034 241.581,0.402 242.566,1.638 C242.566,1.638 246.702,-1.981 250.908,1.638 C250.908,1.638 253.949,4.933 250.908,8.036 C250.908,8.036 252.879,12.971 247.964,14.434 C247.964,14.434 244.268,15.452 243.057,12.465 C243.057,12.465 241.542,8.733 245.510,7.544 C245.510,7.544 243.088,10.933 246.001,11.973 C246.001,11.973 249.955,12.420 248.945,7.544 C247.936,2.668 241.597,2.428 239.622,4.591 C237.647,6.755 235.601,11.986 240.112,14.926 C244.624,17.865 249.177,15.877 252.871,13.449 C256.565,11.022 262.053,7.441 269.065,11.481 C276.078,15.520 279.091,18.752 285.750,14.926 ZM65.267,16.894 C61.679,22.511 50.301,24.584 43.184,17.386 C36.267,10.391 28.953,14.926 28.953,14.926 C18.768,21.520 13.250,14.926 13.250,14.926 C19.909,18.752 22.922,15.520 29.935,11.481 C36.947,7.441 42.435,11.022 46.129,13.449 C49.823,15.877 54.376,17.865 58.888,14.926 C63.399,11.986 61.353,6.755 59.378,4.591 C57.403,2.428 51.064,2.668 50.054,7.544 C49.045,12.420 52.999,11.973 52.999,11.973 C55.912,10.933 53.490,7.544 53.490,7.544 C57.458,8.733 55.943,12.465 55.943,12.465 C54.732,15.452 51.036,14.434 51.036,14.434 C46.121,12.971 48.092,8.036 48.092,8.036 C45.051,4.933 48.092,1.638 48.092,1.638 C52.298,-1.981 56.434,1.638 56.434,1.638 C57.419,0.402 60.935,-1.034 63.795,1.146 C66.655,3.327 64.776,7.544 64.776,7.544 C69.478,10.885 65.267,16.894 65.267,16.894 ZM13.740,13.941 C10.643,12.296 7.361,14.434 7.361,14.434 C2.270,17.494 -0.000,12.957 -0.000,12.957 C2.438,14.803 3.251,15.095 7.361,12.957 C11.471,10.820 13.970,12.850 16.685,13.941 C19.399,15.033 21.101,13.449 21.101,13.449 C23.509,11.558 22.880,9.205 21.101,8.036 C19.322,6.867 17.222,9.066 17.176,10.005 C17.130,10.943 18.157,10.497 18.157,10.497 C19.553,10.558 19.451,11.795 19.138,12.465 C18.826,13.136 16.145,14.011 15.703,10.989 C15.247,7.867 18.157,6.560 18.157,6.560 C22.106,4.816 24.046,8.528 24.046,8.528 C25.533,11.573 23.064,13.941 23.064,13.941 C19.859,17.263 16.838,15.587 13.740,13.941 Z" class="cls-1"/>
</svg>
